<svg xmlns="http://www.w3.org/2000/svg" xmlns:xlink="http://www.w3.org/1999/xlink" viewBox="0 0 100 19.9"><defs><style>.cls-1{fill:#0068ae;}.cls-2{fill:url(#Безымянный_градиент_2);}</style><linearGradient id="Безымянный_градиент_2" y1="9.95" x2="100" y2="9.95" gradientUnits="userSpaceOnUse"><stop offset="0" stop-color="#58b057"/><stop offset="0.14" stop-color="#4fa960"/><stop offset="0.38" stop-color="#389678"/><stop offset="0.67" stop-color="#1277a0"/><stop offset="0.8" stop-color="#0068b3"/></linearGradient></defs><g id="Слой_2" data-name="Слой 2"><g id="Cases_v2" data-name="Cases v2"><path class="cls-1" d="M90.05,19.9A1.51,1.51,0,0,1,89,17.33L96.38,10,89,2.56A1.51,1.51,0,0,1,89,.44a1.49,1.49,0,0,1,2.12,0l8.45,8.45a1.49,1.49,0,0,1,0,2.12l-8.45,8.45A1.49,1.49,0,0,1,90.05,19.9Z"/><path class="cls-2" d="M98.5,11.45H0v-3H98.5a1.5,1.5,0,0,1,0,3Z"/></g></g></svg>