<svg xmlns="http://www.w3.org/2000/svg" viewBox="0 0 118.59 80"><defs><style>.cls-1{fill:#fff;}</style></defs><g id="Слой_2" data-name="Слой 2"><g id="Cases_v2" data-name="Cases v2"><path class="cls-1" d="M10.72,15.81a16.51,16.51,0,0,1,5.27.72,8.19,8.19,0,0,1,3.37,2,7.66,7.66,0,0,1,1.8,3.26,16.09,16.09,0,0,1,.52,4.26V39.87a1.31,1.31,0,0,1-1.05,1.28q-1.32.27-3.21.57a40.08,40.08,0,0,1-6.6.46,20.74,20.74,0,0,1-4.43-.43A9.7,9.7,0,0,1,3,40.34a6.49,6.49,0,0,1-2.2-2.56A8.88,8.88,0,0,1,0,33.9a7.23,7.23,0,0,1,.89-3.73,6.84,6.84,0,0,1,2.36-2.45,10.9,10.9,0,0,1,3.4-1.31,19.19,19.19,0,0,1,4-.41,22.49,22.49,0,0,1,2.46.12q.78.09,1.35.21a.33.33,0,0,0,.4-.32v-.25a4,4,0,0,0-1.1-2.92,5.36,5.36,0,0,0-3.83-1.1A23.81,23.81,0,0,0,6.32,22a16.77,16.77,0,0,0-2.36.5A.66.66,0,0,1,3.13,22l-.6-3.81a1.3,1.3,0,0,1,1-1.48l.39-.09c.62-.15,1.3-.27,2-.39s1.5-.2,2.32-.28S9.89,15.81,10.72,15.81Zm.58,20.87c.7,0,1.37,0,2,0,.49,0,.9-.06,1.24-.1a.34.34,0,0,0,.29-.33V31.35a.33.33,0,0,0-.27-.33l-1-.14A15.53,15.53,0,0,0,12,30.79a14.24,14.24,0,0,0-1.9.12,5,5,0,0,0-1.55.45,2.6,2.6,0,0,0-1,.91,2.52,2.52,0,0,0-.39,1.44A2.44,2.44,0,0,0,8.21,36,6.23,6.23,0,0,0,11.3,36.68Z"/><path class="cls-1" d="M96.86,18.35a1.32,1.32,0,0,1,1-1.28c1-.25,2.27-.49,3.69-.71a37.63,37.63,0,0,1,6-.46,14.7,14.7,0,0,1,5.34.84,8.09,8.09,0,0,1,3.37,2.37,9.17,9.17,0,0,1,1.77,3.64,19.33,19.33,0,0,1,.53,4.69V43.76a.65.65,0,0,1-.94.59l-5.47-2.73a1.32,1.32,0,0,1-.72-1.17V28.3a9.65,9.65,0,0,0-.91-4.88c-.61-1-1.74-1.44-3.4-1.44-.51,0-1.06,0-1.63.07s-.87.08-1.24.13a.33.33,0,0,0-.29.33V41a.65.65,0,0,1-.66.65H97.51a.65.65,0,0,1-.65-.65Z"/><path class="cls-1" d="M57.13,36a13.15,13.15,0,0,1-2.37.22c-1.6,0-2.66-.45-3.18-1.34a7,7,0,0,1-.8-3.59V22.74a.33.33,0,0,1,.33-.33h6a.66.66,0,0,0,.66-.65V17.13a.66.66,0,0,0-.66-.65h-6a.33.33,0,0,1-.33-.33V11.68a1.33,1.33,0,0,0-.72-1.18L44.6,7.78a.66.66,0,0,0-1,.59v23a19.75,19.75,0,0,0,.46,4.45,8.15,8.15,0,0,0,1.6,3.42,7.61,7.61,0,0,0,3.06,2.21,12.92,12.92,0,0,0,4.84.79,16.52,16.52,0,0,0,3.88-.39,21.84,21.84,0,0,0,2.35-.7.66.66,0,0,0,.42-.74l-.65-3.57a1.3,1.3,0,0,0-1.6-1C57.72,35.87,57.43,35.93,57.13,36Z"/><path class="cls-1" d="M36.07,35a3,3,0,0,1-.55-1.29,9.89,9.89,0,0,1-.14-1.72V4a1.32,1.32,0,0,0-.73-1.18L29.2.07a.66.66,0,0,0-.95.59V33.37a14.86,14.86,0,0,0,.4,3.62,5.68,5.68,0,0,0,1.54,2.72,7.26,7.26,0,0,0,3.06,1.75,16.52,16.52,0,0,0,4.47.66.65.65,0,0,0,.67-.55l.69-4a1.32,1.32,0,0,0-1-1.5,3.38,3.38,0,0,1-.83-.26A2.85,2.85,0,0,1,36.07,35Z"/><path class="cls-1" d="M90.89,29.2a13.44,13.44,0,0,1-.13,1.69A13.2,13.2,0,1,1,76.64,15.82a1.46,1.46,0,0,1,1.29-.72,1.48,1.48,0,0,1,1.45,1.52,1.52,1.52,0,0,1-1.59,1.43,1.48,1.48,0,0,1-1.1-.64A11.54,11.54,0,0,0,70,20.3a.13.13,0,0,0,0,.21L71,21a.32.32,0,0,0,.34,0,10.27,10.27,0,0,1,4-1.92,10.48,10.48,0,0,1,5.61.22.82.82,0,0,1,.58.86.8.8,0,0,1-1,.66,8.76,8.76,0,0,0-7.49,1,.14.14,0,0,0,0,.23l1,.52a.35.35,0,0,0,.3,0,7.23,7.23,0,0,1,2.23-.74.79.79,0,0,1,.92.71.84.84,0,0,1-.71.87,6,6,0,0,0-.73.17,5.74,5.74,0,1,0,5.66,1.32,6,6,0,0,0-1.19-.87.81.81,0,0,1-.23-1.22.82.82,0,0,1,1-.16,7,7,0,0,1,1.5,1.09,7.38,7.38,0,0,1,2.19,4.17.34.34,0,0,0,.18.24l1.08.54a.13.13,0,0,0,.19-.12,8.47,8.47,0,0,0-1.69-4.64h-.28A1.48,1.48,0,0,1,83,22.63h0c0-.06,0-.12,0-.17v-.09a.28.28,0,0,1,0-.09h0a1.48,1.48,0,0,1,1.12-1.32h0a2.33,2.33,0,0,1,.37,0,1.51,1.51,0,0,1,.37.06h0A1.45,1.45,0,0,1,86,22.4a1.27,1.27,0,0,1,0,.2h0c0,.08,0,.14,0,.21a10.07,10.07,0,0,1,2.08,6c0,.07,0,.29,0,.48a.32.32,0,0,0,.19.3l.89.45a.12.12,0,0,0,.19-.1c0-.25,0-.51,0-.77A11.54,11.54,0,0,0,83,18.64a.83.83,0,0,1-.44-.93.81.81,0,0,1,1.14-.51A13.12,13.12,0,0,1,90.89,29.2Z"/><path class="cls-1" d="M5.31,61.62a4.51,4.51,0,0,1-3.45-1.26A5,5,0,0,1,.67,56.77,5.51,5.51,0,0,1,1,54.72a4.31,4.31,0,0,1,1-1.53,4.22,4.22,0,0,1,1.51-.95,5.51,5.51,0,0,1,1.89-.32A5.85,5.85,0,0,1,6.49,52a6.52,6.52,0,0,1,.84.2,4.43,4.43,0,0,1,.61.23l.35.19-.61,1.69a5.22,5.22,0,0,0-1-.39,4.65,4.65,0,0,0-1.29-.16,2.73,2.73,0,0,0-.94.16,2.09,2.09,0,0,0-.82.52,2.48,2.48,0,0,0-.57.92,3.66,3.66,0,0,0-.22,1.36A5.06,5.06,0,0,0,3,57.93a2.52,2.52,0,0,0,.46,1,2.19,2.19,0,0,0,.82.64,2.92,2.92,0,0,0,1.24.24,5.17,5.17,0,0,0,.82-.06A4.8,4.8,0,0,0,7,59.58a2.94,2.94,0,0,0,.5-.16l.38-.18.58,1.68a4.66,4.66,0,0,1-1.25.48A7.3,7.3,0,0,1,5.31,61.62Z"/><path class="cls-1" d="M16.23,57.89A4.61,4.61,0,0,1,16,59.41a3.37,3.37,0,0,1-.69,1.18,3.15,3.15,0,0,1-1.1.76,3.87,3.87,0,0,1-2.84,0,3.11,3.11,0,0,1-1.09-.76,3.41,3.41,0,0,1-.71-1.18,4.57,4.57,0,0,1,0-3,3.52,3.52,0,0,1,.73-1.16,3,3,0,0,1,1.1-.75,3.48,3.48,0,0,1,1.39-.27,3.57,3.57,0,0,1,1.4.27,3,3,0,0,1,1.09.75A3.48,3.48,0,0,1,16,56.37,4.33,4.33,0,0,1,16.23,57.89Zm-2,0a2.58,2.58,0,0,0-.37-1.46,1.32,1.32,0,0,0-2.11,0,2.5,2.5,0,0,0-.38,1.46,2.58,2.58,0,0,0,.38,1.47,1.3,1.3,0,0,0,2.11,0A2.67,2.67,0,0,0,14.19,57.89Z"/><path class="cls-1" d="M20.82,61.56l-.8,0-.84-.08-.79-.11-.62-.11V54.48c.17,0,.37-.07.62-.1l.79-.09.84-.06.8,0a5.08,5.08,0,0,1,1.47.18,3,3,0,0,1,1,.45,1.82,1.82,0,0,1,.53.63,1.65,1.65,0,0,1,.16.7,1.7,1.7,0,0,1-.23.86,1.3,1.3,0,0,1-.58.56,1.8,1.8,0,0,1,.74.59,1.43,1.43,0,0,1,.26.49,2,2,0,0,1,.1.67,2.19,2.19,0,0,1-.16.83,1.91,1.91,0,0,1-.57.71,3.26,3.26,0,0,1-1.06.49A5.83,5.83,0,0,1,20.82,61.56Zm.07-4.42A2.29,2.29,0,0,0,21.7,57a.64.64,0,0,0,0-1.11,2.41,2.41,0,0,0-.92-.14,4.82,4.82,0,0,0-.49,0,4.59,4.59,0,0,0-.48,0v1.32ZM19.77,60a4.38,4.38,0,0,0,.5,0l.58,0a2.67,2.67,0,0,0,1-.17.68.68,0,0,0,0-1.2,2.22,2.22,0,0,0-1-.17H19.77Z"/><path class="cls-1" d="M32.34,57.9a5,5,0,0,1-.2,1.49,3.21,3.21,0,0,1-.59,1.15,2.61,2.61,0,0,1-1,.75,3.13,3.13,0,0,1-1.33.27,3.22,3.22,0,0,1-.78-.08,3.58,3.58,0,0,1-.7-.23v2.66h-2V54.62a5.31,5.31,0,0,1,.61-.16l.73-.13.78-.08c.26,0,.52,0,.76,0a4.16,4.16,0,0,1,1.55.27,3.28,3.28,0,0,1,1.16.73,3.35,3.35,0,0,1,.72,1.16A4.63,4.63,0,0,1,32.34,57.9Zm-2,.05a2.4,2.4,0,0,0-.41-1.48,1.44,1.44,0,0,0-1.23-.55,3.94,3.94,0,0,0-.5,0l-.38,0v3.61a1.72,1.72,0,0,0,.49.2,2.13,2.13,0,0,0,.61.08C29.83,59.87,30.3,59.23,30.3,58Z"/><path class="cls-1" d="M33.55,58a4.36,4.36,0,0,1,.29-1.64,3.34,3.34,0,0,1,.76-1.17,3.12,3.12,0,0,1,1.08-.71,3.35,3.35,0,0,1,1.25-.24,3.08,3.08,0,0,1,2.37.92,3.78,3.78,0,0,1,.87,2.7c0,.11,0,.24,0,.38s0,.26,0,.37H35.6a1.35,1.35,0,0,0,.58,1,2.32,2.32,0,0,0,1.37.36,5.64,5.64,0,0,0,1.08-.1,4.08,4.08,0,0,0,.86-.25l.27,1.62a2.06,2.06,0,0,1-.43.16,4.43,4.43,0,0,1-.6.14,6.85,6.85,0,0,1-.7.11c-.25,0-.5,0-.75,0a4.4,4.4,0,0,1-1.66-.29,3,3,0,0,1-1.85-1.93A4.5,4.5,0,0,1,33.55,58Zm4.69-.76a2.17,2.17,0,0,0-.08-.5,1.22,1.22,0,0,0-.23-.42,1.1,1.1,0,0,0-.39-.31,1.52,1.52,0,0,0-1.16,0,1.24,1.24,0,0,0-.4.3,1.36,1.36,0,0,0-.25.44,2.83,2.83,0,0,0-.13.5Z"/><path class="cls-1" d="M43.7,57.36c0,.31,0,.65-.05,1s0,.74,0,1.11,0,.72,0,1.06,0,.63,0,.88h-2c0-.49.05-1,.09-1.66s.08-1.25.13-1.89.11-1.26.16-1.87.12-1.15.17-1.64h1.66c.39.63.74,1.28,1.07,2s.66,1.4,1,2.2c.38-.85.74-1.64,1.1-2.37a20,20,0,0,1,1-1.78h1.69c.06.49.12,1,.18,1.64s.11,1.23.16,1.87.09,1.27.13,1.89.06,1.17.08,1.66h-2c0-.7-.05-1.39-.08-2.08s-.06-1.36-.08-2L46.57,60.6H45.18Z"/><path class="cls-1" d="M51.59,58a4.37,4.37,0,0,1,.28-1.64,3.64,3.64,0,0,1,.76-1.17,3.12,3.12,0,0,1,1.08-.71A3.43,3.43,0,0,1,55,54.19a3.09,3.09,0,0,1,2.38.92,3.78,3.78,0,0,1,.87,2.7c0,.11,0,.24,0,.38s0,.26,0,.37H53.64a1.31,1.31,0,0,0,.57,1,2.34,2.34,0,0,0,1.37.36,5.49,5.49,0,0,0,1.08-.1,4.38,4.38,0,0,0,.87-.25l.26,1.62a1.86,1.86,0,0,1-.43.16,4,4,0,0,1-.59.14,7.06,7.06,0,0,1-.71.11c-.25,0-.5,0-.75,0a4.38,4.38,0,0,1-1.65-.29,3.1,3.1,0,0,1-1.17-.77,2.88,2.88,0,0,1-.68-1.16A4.5,4.5,0,0,1,51.59,58Zm4.69-.76a2.19,2.19,0,0,0-.09-.5,1.08,1.08,0,0,0-.23-.42,1.1,1.1,0,0,0-.39-.31,1.25,1.25,0,0,0-.58-.12,1.34,1.34,0,0,0-.58.11,1.35,1.35,0,0,0-.4.3,1.57,1.57,0,0,0-.25.44,2.8,2.8,0,0,0-.12.5Z"/><path class="cls-1" d="M65.83,61.43h-2V58.64H61.75v2.79h-2V54.37h2V57h2.08V54.37h2Z"/><path class="cls-1" d="M73.78,61.43h-2V58.64H69.7v2.79h-2V54.37h2V57h2.08V54.37h2Z"/><path class="cls-1" d="M77.65,56.88l.49-.09q.3,0,.69,0a4.34,4.34,0,0,1,1.16.15,2.88,2.88,0,0,1,1,.45,2,2,0,0,1,.63.76,2.32,2.32,0,0,1,.24,1.08,2.52,2.52,0,0,1-.21,1.07A2,2,0,0,1,81,61a2.8,2.8,0,0,1-1,.42,4.73,4.73,0,0,1-1.24.15,13.39,13.39,0,0,1-1.62-.09,11.74,11.74,0,0,1-1.51-.28V54.37h2Zm1,3.15a1.63,1.63,0,0,0,.86-.2.86.86,0,0,0,.21-1.09.79.79,0,0,0-.3-.27,1.36,1.36,0,0,0-.43-.14,3,3,0,0,0-.53,0l-.45,0a2.06,2.06,0,0,0-.36,0V60l.43,0Zm6.18,1.4h-2V54.37h2Z"/><path class="cls-1" d="M86.37,58a4.18,4.18,0,0,1,.29-1.64,3.47,3.47,0,0,1,.75-1.17,3.32,3.32,0,0,1,1.08-.71,3.44,3.44,0,0,1,1.26-.24,3.08,3.08,0,0,1,2.37.92,3.78,3.78,0,0,1,.87,2.7c0,.11,0,.24,0,.38s0,.26,0,.37H88.42a1.32,1.32,0,0,0,.58,1,2.31,2.31,0,0,0,1.36.36,5.49,5.49,0,0,0,1.08-.1,4,4,0,0,0,.87-.25l.27,1.62a2.06,2.06,0,0,1-.43.16,4.43,4.43,0,0,1-.6.14,6.85,6.85,0,0,1-.7.11c-.25,0-.5,0-.75,0a4.4,4.4,0,0,1-1.66-.29,3,3,0,0,1-1.85-1.93A4.5,4.5,0,0,1,86.37,58Zm4.69-.76a2.19,2.19,0,0,0-.09-.5,1.06,1.06,0,0,0-.22-.42,1.3,1.3,0,0,0-.39-.31,1.29,1.29,0,0,0-.59-.12,1.26,1.26,0,0,0-.57.11,1.24,1.24,0,0,0-.4.3,1.36,1.36,0,0,0-.25.44,2.83,2.83,0,0,0-.13.5Z"/><path class="cls-1" d="M1.07,68.23H3.16v9.29H1.07Z"/><path class="cls-1" d="M12.2,68.23V70H9.4v7.51H7.31V70H4.51V68.23Z"/><path class="cls-1" d="M23.18,74a5,5,0,0,1-.2,1.49,3.21,3.21,0,0,1-.59,1.15,2.64,2.64,0,0,1-1,.76,3.29,3.29,0,0,1-1.33.26,3.22,3.22,0,0,1-.78-.08,3.29,3.29,0,0,1-.69-.23V80h-2V70.71a5.92,5.92,0,0,1,.61-.16c.24,0,.48-.09.73-.12s.52-.07.78-.09l.76,0a4.26,4.26,0,0,1,1.56.26,3.24,3.24,0,0,1,1.15.73,3.35,3.35,0,0,1,.72,1.16A4.63,4.63,0,0,1,23.18,74Zm-2,.06a2.44,2.44,0,0,0-.42-1.49A1.44,1.44,0,0,0,19.5,72a3.94,3.94,0,0,0-.5,0,2.56,2.56,0,0,0-.37,0v3.6a1.54,1.54,0,0,0,.48.2,2.18,2.18,0,0,0,.61.08C20.67,76,21.15,75.32,21.15,74.05Z"/><path class="cls-1" d="M24.39,74.05a4.38,4.38,0,0,1,.29-1.65,3.34,3.34,0,0,1,.76-1.17,3.12,3.12,0,0,1,1.08-.71,3.35,3.35,0,0,1,1.25-.24,3.08,3.08,0,0,1,2.37.92A3.78,3.78,0,0,1,31,73.9c0,.12,0,.24,0,.38s0,.26,0,.37H26.44a1.35,1.35,0,0,0,.58,1,2.32,2.32,0,0,0,1.37.36,5.64,5.64,0,0,0,1.08-.1,4.08,4.08,0,0,0,.86-.25l.27,1.62a2.74,2.74,0,0,1-.43.17c-.18,0-.38.1-.6.14l-.7.1c-.25,0-.5,0-.75,0a4.61,4.61,0,0,1-1.66-.28,3.12,3.12,0,0,1-1.16-.78,3,3,0,0,1-.69-1.16A4.77,4.77,0,0,1,24.39,74.05Zm4.69-.77a1.62,1.62,0,0,0-.08-.49,1.18,1.18,0,0,0-.23-.43,1.1,1.1,0,0,0-.39-.31,1.28,1.28,0,0,0-.58-.12,1.43,1.43,0,0,0-.58.11,1.23,1.23,0,0,0-.65.74,2.83,2.83,0,0,0-.13.5Z"/><path class="cls-1" d="M32.56,77.52v-7h2v5.41h1.83V70.47h2v5.41h1.82V70.47h2v7Z"/><path class="cls-1" d="M43.75,74.05A4.38,4.38,0,0,1,44,72.4a3.49,3.49,0,0,1,.76-1.17,3.12,3.12,0,0,1,1.08-.71,3.39,3.39,0,0,1,1.25-.24,3.1,3.1,0,0,1,2.38.92,3.78,3.78,0,0,1,.87,2.7c0,.12,0,.24,0,.38s0,.26,0,.37H45.81a1.31,1.31,0,0,0,.57,1,2.34,2.34,0,0,0,1.37.36,5.49,5.49,0,0,0,1.08-.1,4.08,4.08,0,0,0,.86-.25L50,77.26a2.39,2.39,0,0,1-.43.17c-.18,0-.37.1-.59.14l-.71.1c-.25,0-.5,0-.75,0a4.6,4.6,0,0,1-1.65-.28,3.25,3.25,0,0,1-1.17-.78A2.88,2.88,0,0,1,44,75.49,4.48,4.48,0,0,1,43.75,74.05Zm4.7-.77a2,2,0,0,0-.09-.49,1.05,1.05,0,0,0-.23-.43,1.1,1.1,0,0,0-.39-.31,1.25,1.25,0,0,0-.58-.12,1.46,1.46,0,0,0-.58.11,1.23,1.23,0,0,0-.65.74,2.8,2.8,0,0,0-.12.5Z"/><path class="cls-1" d="M58,77.52H56V74.73H53.92v2.79h-2v-7h2v2.62H56V70.47h2Z"/><path class="cls-1" d="M66.3,70.47v7h-2c0-.45,0-.89,0-1.34s0-.85,0-1.22,0-.71,0-1,0-.49,0-.62l-.78,1.11c-.26.38-.51.75-.74,1.11s-.46.71-.67,1-.4.63-.56.91H59.87v-7h2c0,.44,0,.87,0,1.28s0,.77,0,1.1,0,.62,0,.87,0,.43,0,.57c.54-.79,1-1.5,1.48-2.12s.9-1.19,1.33-1.7Z"/><path class="cls-1" d="M71.1,75a11.31,11.31,0,0,0-.77,1.27c-.23.42-.44.84-.65,1.24h-2c.26-.58.52-1.11.79-1.6a13.72,13.72,0,0,1,.77-1.24,2.55,2.55,0,0,1-.89-.76A1.9,1.9,0,0,1,68,72.76,2.1,2.1,0,0,1,68.82,71a3.89,3.89,0,0,1,2.36-.63l.74,0a7.4,7.4,0,0,1,.81.08l.77.11a5.28,5.28,0,0,1,.63.13v6.85h-2V75Zm1-3.11-.42,0a4.36,4.36,0,0,0-.48,0,1.5,1.5,0,0,0-1,.25.83.83,0,0,0-.26.63.76.76,0,0,0,.1.41.9.9,0,0,0,.28.27,1.3,1.3,0,0,0,.39.14,2.15,2.15,0,0,0,.43,0h1Z"/></g></g></svg>