<svg xmlns="http://www.w3.org/2000/svg" viewBox="0 0 54.67 87.67"><defs><style>.cls-1{fill:none;stroke:#0068ae;stroke-linecap:round;stroke-linejoin:round;stroke-width:5.67px;}.cls-2{fill:#0068ae;}</style></defs><g id="Слой_2" data-name="Слой 2"><g id="Слой_2-2" data-name="Слой 2"><rect class="cls-1" x="2.83" y="2.83" width="49" height="82" rx="5.67"/><polygon class="cls-1" points="31.63 11.67 23.04 11.67 17.37 2.83 37.3 2.83 31.63 11.67"/><path class="cls-2" d="M20.62,32.42a2.82,2.82,0,0,0-1.3.3h0l-.11.06h0l-1.47.82h0l0,0h0a2.82,2.82,0,0,0-1.28,3.31,33,33,0,0,0,16,18.77,2.8,2.8,0,0,0,3.26-.51h0l1.81-1.67v0a2.77,2.77,0,0,0,.74-1c.76-1.73-.4-3.9-2.59-4.86a5.14,5.14,0,0,0-2.08-.45,3.77,3.77,0,0,0-2.55.89A28.12,28.12,0,0,1,26.9,44.2a28.89,28.89,0,0,1-3-4.23c1.27-1.09,1.48-3.27.39-5.15a4.48,4.48,0,0,0-3.69-2.4Z"/></g></g></svg>