<svg xmlns="http://www.w3.org/2000/svg" viewBox="0 0 30.74 26.5"><defs><style>.cls-1{fill:none;stroke:currentColor;stroke-linecap:round;stroke-linejoin:round;stroke-width:3px;}.cls-2{fill:currentColor;}</style></defs><g id="Слой_2" data-name="Слой 2"><g id="Cases_v2" data-name="Cases v2"><path class="cls-1" d="M18.76,12.9a3.71,3.71,0,0,0,2.62,6.33h6.11V25H4.78A3.28,3.28,0,0,1,1.5,21.72V6.8h26v5H21.38A3.7,3.7,0,0,0,18.76,12.9Z"/><path class="cls-1" d="M4.77,1.5H27.49a0,0,0,0,1,0,0V6.8a0,0,0,0,1,0,0H1.5a0,0,0,0,1,0,0v-2A3.27,3.27,0,0,1,4.77,1.5Z"/><path class="cls-1" d="M29.24,11.81v7.42H21.38a3.71,3.71,0,0,1,0-7.42Z"/><path class="cls-2" d="M22.44,14.51a1,1,0,1,0,1,1,1,1,0,0,0-1-1Z"/></g></g></svg>