<svg xmlns="http://www.w3.org/2000/svg" viewBox="0 0 19.15 20"><defs><style>.cls-1{fill:#fff;}</style></defs><g id="Слой_2" data-name="Слой 2"><g id="Cases_v2" data-name="Cases v2"><path class="cls-1" d="M17.24,8H14.59a5.54,5.54,0,0,1,.35,2,5.5,5.5,0,0,1-5.36,5.6A5.51,5.51,0,0,1,4.21,10a5.76,5.76,0,0,1,.35-2H1.92v7.2A2.72,2.72,0,0,0,4.6,18h10a2.73,2.73,0,0,0,2.68-2.8Zm-.38-5.6H13.79V5.6h3.07ZM9.58,6.8A3.15,3.15,0,0,0,6.51,10a3.15,3.15,0,0,0,3.07,3.2A3.14,3.14,0,0,0,12.64,10,3.14,3.14,0,0,0,9.58,6.8M15.71,20H3.45A3.51,3.51,0,0,1,0,16.4V3.6A3.51,3.51,0,0,1,3.45,0H15.71a3.51,3.51,0,0,1,3.44,3.6V16.4A3.51,3.51,0,0,1,15.71,20"/></g></g></svg>