<svg xmlns="http://www.w3.org/2000/svg" viewBox="0 0 68.22 102.75"><defs><style>.cls-1{fill:none;stroke:#0068ae;stroke-linecap:round;stroke-linejoin:round;stroke-width:5.67px;}.cls-2{fill:#0068ae;}</style></defs><g id="Слой_2" data-name="Слой 2"><g id="Слой_2-2" data-name="Слой 2"><path class="cls-1" d="M55.94,85.24v6.08a8.59,8.59,0,1,1-17.18,0V85.24Z"/><line class="cls-1" x1="50.43" y1="85.24" x2="50.43" y2="79.33"/><path class="cls-1" d="M65.38,82.81A18.77,18.77,0,0,0,46.61,64h-25A18.77,18.77,0,0,0,2.83,82.81"/><path class="cls-1" d="M43.44,64c0,5.73-4.18,10.37-9.33,10.37S24.77,69.77,24.77,64Z"/><path class="cls-1" d="M56.62,38.3C56.62,52.51,46.54,64,34.11,64S11.59,52.51,11.59,38.3c0-8,3.22-14.16,8.27-18A44.89,44.89,0,0,0,52.53,30.6a5,5,0,0,0,2.61-1A24.93,24.93,0,0,1,56.62,38.3Z"/><path class="cls-1" d="M40.37,53.71a11.68,11.68,0,0,1-12.52,0"/><path class="cls-2" d="M25.67,33.83a3.55,3.55,0,0,0-3.55,3.55v2.83a3.55,3.55,0,1,0,7.09,0V37.38a3.55,3.55,0,0,0-3.54-3.55Z"/><path class="cls-2" d="M42.55,33.83A3.55,3.55,0,0,0,39,37.38v2.83a3.55,3.55,0,1,0,7.09,0V37.38a3.55,3.55,0,0,0-3.55-3.55Z"/><path class="cls-1" d="M56.88,27a5,5,0,0,1-4.35,3.62A44.89,44.89,0,0,1,19.86,20.33a27.48,27.48,0,0,1-2.28-2.12c1.06-13.83,26.75,1,27.25-15.38C57,6.09,58.88,19.73,56.88,27Z"/></g></g></svg>