<svg xmlns="http://www.w3.org/2000/svg" viewBox="0 0 2154.43 255.58"><defs><style>.cls-1{opacity:0.25;}.cls-2,.cls-3{fill:none;stroke:#0068ae;stroke-linecap:round;stroke-miterlimit:10;stroke-width:2px;}.cls-3{stroke-dasharray:0 3;}</style></defs><g id="Слой_2" data-name="Слой 2"><g id="Cases_v2" data-name="Cases v2"><g class="cls-1"><line class="cls-2" x1="1" y1="16.97" x2="1" y2="16.97"/><path class="cls-3" d="M2.48,19.58C44.35,91.35,146.1,121,218.7,81.85c32-17.25,57.41-45.06,89.62-62C375-15.09,458.19,3.14,526.15,37s128.6,82.24,199,110.58C810.51,182,908,184.35,994.33,154.22c56.26-19.65,107-52.2,161.89-75.36C1250.48,39.07,1356.81,28,1457.8,47.33c120.31,23.08,228.51,87,340.29,137.77,111.33,50.57,236.37,89.15,353.89,58.67"/><line class="cls-2" x1="2153.43" y1="243.39" x2="2153.43" y2="243.39"/></g></g></g></svg>