<svg xmlns="http://www.w3.org/2000/svg" viewBox="0 0 11.87 15.28"><defs><style>.cls-1{fill:#fff;}</style></defs><g id="Слой_2" data-name="Слой 2"><g id="Cases_v2" data-name="Cases v2"><path class="cls-1" d="M5.32,8.84c-.57,0-1.49,0-1.49,0l0,3.05H5.36c1.31,0,2.38-.68,2.38-1.53S6.63,8.84,5.32,8.84M5.17,3.05c-.54,0-1.22,0-1.34,0l0,3s.84,0,1.38,0A1.74,1.74,0,0,0,7.09,4.6,1.78,1.78,0,0,0,5.17,3.05m3.6,3.84a4.46,4.46,0,0,1,3.1,4c0,2.39-2.37,4.35-5.32,4.43H0V.09L3.87,0s7.43-.32,7.43,3.8c0,1.27-1,2.35-2.53,3.08"/></g></g></svg>